{"title":"Supernatural.S05E18.l[Apple-iPod Mp4].m4v","uid":5498372,"size":306223944,"categoryP":"video","categoryS":"handheld","magnet":"?xt=urn:btih:36d75c6faf080c68043c4d0f2ff88834b4e4bc3f&amp;dn=Supernatural.S05E18.l%5BApple-iPod+Mp4%5D.m4v&amp;tr=udp%3A%2F%2Ftracker.openbittorrent.com%3A80&amp;tr=udp%3A%2F%2Fopen.demonii.com%3A1337&amp;tr=udp%3A%2F%2Ftracker.coppersurfer.tk%3A6969&amp;tr=udp%3A%2F%2Fexodus.desync.com%3A6969","seeders":0,"leechers":1,"uploader":"Harrharrr","files":-1,"time":1271404432,"description":"General\nComplete name                    : L:SeriesSupernatural.S05E18.l[Apple-iPod Mp4].m4v\nFormat                           : MPEG-4\nCodec ID                         : M4V \nFile size                        : 292 MiB\nDuration                         : 41mn 34s\nOverall bit rate                 : 982 Kbps\nEncoded date                     : UTC 2010-04-16 05:39:05\nTagged date                      : UTC 2010-04-16 05:39:05\nWriting library                  : AVS \n\nVideo\nID                               : 1\nFormat                           : MPEG-4 Visual\nFormat profile                   : Advanced Simple@L1\nFormat settings, BVOP            : No\nFormat settings, QPel            : No\nFormat settings, GMC             : No warppoints\nFormat settings, Matrix          : Default (H.263)\nCodec ID                         : 20\nDuration                         : 41mn 34s\nBit rate mode                    : Constant\nBit rate                         : 885 Kbps\nNominal bit rate                 : 64.0 Kbps\nWidth                            : 320 pixels\nHeight                           : 240 pixels\nDisplay aspect ratio             : 4:3\nFrame rate mode                  : Constant\nFrame rate                       : 30.000 fps\nResolution                       : 8 bits\nColorimetry                      : 4:2:0\nScan type                        : Progressive\nBits/(Pixel*Frame)               : 0.384\nStream size                      : 263 MiB (90%)\nLanguage                         : English\nEncoded date                     : UTC 2010-04-16 05:39:05\nTagged date                      : UTC 2010-04-16 05:39:05\n\nAudio\nID                               : 2\nFormat                           : AAC\nFormat/Info                      : Advanced Audio Codec\nFormat version                   : Version 4\nFormat profile                   : LC\nFormat settings, SBR             : No\nCodec ID                         : 40\nDuration                         : 41mn 34s\nBit rate mode                    : Variable\nBit rate                         : 93.4 Kbps\nMaximum bit rate                 : 96.0 Kbps\nChannel(s)                       : 2 channels\nChannel positions                : Front: L R\nSampling rate                    : 48.0 KHz\nStream size                      : 27.8 MiB (10%)\nLanguage                         : English\nEncoded date                     : UTC 2010-04-16 05:39:05\nTagged date                      : UTC 2010-04-16 05:39:05\n","torrent":{"xt":"urn:btih:36d75c6faf080c68043c4d0f2ff88834b4e4bc3f","amp;dn":"Supernatural.S05E18.l%5BApple-iPod+Mp4%5D.m4v","amp;tr":["udp%3A%2F%2Ftracker.openbittorrent.com%3A80","udp%3A%2F%2Fopen.demonii.com%3A1337","udp%3A%2F%2Ftracker.coppersurfer.tk%3A6969","udp%3A%2F%2Fexodus.desync.com%3A6969"],"infoHash":"36d75c6faf080c68043c4d0f2ff88834b4e4bc3f","infoHashBuffer":{"type":"Buffer","data":[54,215,92,111,175,8,12,104,4,60,77,15,47,248,136,52,180,228,188,63]},"announce":[],"urlList":[]}}